<?xml version="1.0" encoding="UTF-8"?>
<svg xmlns="http://www.w3.org/2000/svg" id="a" width="865.76" height="682.89" viewBox="0 0 865.76 682.89">
  <g>
    <path d="M159.6,208.45s-29.63,25.43-25.95,62.15c3.67,36.72,40.08,32.01,47.73,18.61,11.59-20.3-.73-59.36-.73-59.36,0,0-19.04,1.98-21.04-21.4Z" fill="#002346" stroke="#002346" stroke-linecap="round" stroke-linejoin="round"></path>
    <path d="M221.9,226.35s30.72,23.17,33.01,51.31c3.46,42.59-44.98,23.96-50.31-3.19-5.32-27.15,17.3-48.12,17.3-48.12Z" fill="#002346" stroke="#002346" stroke-linecap="round" stroke-linejoin="round"></path>
    <g>
      <g>
        <g>
          <rect x="115.78" y="35.37" width="5" height="4" fill="#fff" stroke="#002346" stroke-miterlimit="10"></rect>
          <rect x="111.78" y="38.37" width="35" height="48" fill="#fff" stroke="#002346" stroke-miterlimit="10"></rect>
          <path d="M115.38,31.37h5.81c1.16,0,2.1,.94,2.1,2.1v2.9h-10v-2.9c0-1.16,.94-2.1,2.1-2.1Z" fill="#7073c2" stroke="#002346" stroke-linecap="round" stroke-linejoin="round"></path>
          <rect x="111.78" y="76.37" width="35" height="10" fill="#7073c2" stroke="#002346" stroke-linecap="round" stroke-linejoin="round"></rect>
        </g>
        <g>
          <rect x="156.12" y="35.37" width="5" height="4" fill="#fff" stroke="#002346" stroke-miterlimit="10"></rect>
          <rect x="152.12" y="38.37" width="35" height="48" fill="#fff" stroke="#002346" stroke-miterlimit="10"></rect>
          <path d="M155.71,31.37h5.81c1.16,0,2.1,.94,2.1,2.1v2.9h-10v-2.9c0-1.16,.94-2.1,2.1-2.1Z" fill="#438dca" stroke="#002346" stroke-miterlimit="10"></path>
          <rect x="152.12" y="76.37" width="35" height="10" fill="#438dca" stroke="#002346" stroke-miterlimit="10"></rect>
        </g>
        <g>
          <rect x="196.45" y="35.37" width="5" height="4" fill="#fff" stroke="#002346" stroke-miterlimit="10"></rect>
          <rect x="192.45" y="38.37" width="35" height="48" fill="#fff" stroke="#002346" stroke-miterlimit="10"></rect>
          <path d="M196.05,31.37h5.81c1.16,0,2.1,.94,2.1,2.1v2.9h-10v-2.9c0-1.16,.94-2.1,2.1-2.1Z" fill="#7ccf92" stroke="#002346" stroke-miterlimit="10"></path>
          <rect x="192.45" y="76.37" width="35" height="10" fill="#7ccf92" stroke="#002346" stroke-miterlimit="10"></rect>
        </g>
        <g>
          <rect x="236.78" y="35.37" width="5" height="4" fill="#fff" stroke="#002346" stroke-miterlimit="10"></rect>
          <rect x="232.78" y="38.37" width="35" height="48" fill="#fff" stroke="#002346" stroke-miterlimit="10"></rect>
          <path d="M236.38,31.37h5.81c1.16,0,2.1,.94,2.1,2.1v2.9h-10v-2.9c0-1.16,.94-2.1,2.1-2.1Z" fill="#fbe493" stroke="#002346" stroke-miterlimit="10"></path>
          <rect x="232.78" y="76.37" width="35" height="10" fill="#fbe493" stroke="#002346" stroke-miterlimit="10"></rect>
        </g>
        <rect x="98.5" y="86.13" width="179" height="13" fill="#e6e6e6" stroke="#002346" stroke-miterlimit="10"></rect>
      </g>
      <rect x="98.5" y="167.13" width="179" height="13" fill="#e6e6e6" stroke="#002346" stroke-miterlimit="10"></rect>
      <rect x="90.5" y="25.13" width="12" height="434" fill="#e6e6e6" stroke="#002346" stroke-miterlimit="10"></rect>
      <rect x="274.5" y="25.13" width="12" height="434" fill="#e6e6e6" stroke="#002346" stroke-miterlimit="10"></rect>
      <g>
        <rect x="115.65" y="111.87" width="47.57" height="52.69" fill="#438dca" stroke="#002346" stroke-miterlimit="10"></rect>
        <rect x="112.72" y="108.57" width="53.42" height="5.12" rx="2.56" ry="2.56" fill="#fff" stroke="#002346" stroke-miterlimit="10"></rect>
        <rect x="112.72" y="162" width="53.42" height="5.12" rx="2.56" ry="2.56" fill="#fff" stroke="#002346" stroke-miterlimit="10"></rect>
        <ellipse cx="139.43" cy="139.31" rx="15.73" ry="10.98" fill="#fff" stroke="#002346" stroke-miterlimit="10"></ellipse>
      </g>
      <g>
        <rect x="202.65" y="111.87" width="47.57" height="52.69" fill="#fbe493" stroke="#002346" stroke-miterlimit="10"></rect>
        <rect x="199.72" y="108.57" width="53.42" height="5.12" rx="2.56" ry="2.56" fill="#fff" stroke="#002346" stroke-miterlimit="10"></rect>
        <rect x="199.72" y="162" width="53.42" height="5.12" rx="2.56" ry="2.56" fill="#fff" stroke="#002346" stroke-miterlimit="10"></rect>
        <ellipse cx="226.43" cy="139.31" rx="15.73" ry="10.98" fill="#fff" stroke="#002346" stroke-miterlimit="10"></ellipse>
      </g>
    </g>
    <path d="M224.65,223.45s11.09-12.25,7.89-31.24c-2.17-12.87-7.89-17.04-7.89-17.04,0,0,8.72-17.57-17.25-16.5-25.97,1.06-41.25,13.81-41.25,13.81,0,0-11.87-5.83-17.19,8.01-5.32,13.84,3.53,44.63,3.53,44.63l72.15-1.68Z" fill="#002346" stroke="#002346" stroke-linecap="round" stroke-linejoin="round"></path>
    <rect x="90.51" y="476.63" width="687.74" height="95.27" fill="#e6e6e6" stroke="#002346" stroke-miterlimit="10"></rect>
    <path d="M444.16,317.58v-3.15c0-3.25,2.63-5.88,5.88-5.88h0c3.52,0,6.29,3.08,5.84,6.58-1.03,8.06-4.03,20.83-12.76,22.19l1.04-19.74Z" fill="#f0b1bf" stroke="#002346" stroke-miterlimit="10"></path>
    <path d="M445.76,329.89v-3.15c0-3.25,2.63-5.88,5.88-5.88h0c3.52,0,6.29,3.08,5.84,6.58-1.03,8.06-4.03,20.83-12.76,22.19l1.04-19.74Z" fill="#f0b1bf" stroke="#002346" stroke-miterlimit="10"></path>
    <path d="M423.94,352.45c.04-.51,.45-.93,.96-1,12.63-1.86,21.86-14.39,21.37-29.21-.52-15.8-12.2-28.23-26.07-27.77-13.88,.46-24.7,13.64-24.17,29.44,.46,13.76,9.38,24.97,20.84,27.33,0,0,.65,.19,.93,1.31,0,0,0,1.68,3.07,1.68,0,0,1.85,.21,2.73-.79,.23-.26,.33-.6,.35-.95,0-.01,0-.02,0-.02Z" fill="#8c6239" stroke="#002346" stroke-miterlimit="10"></path>
    <path d="M438.5,284.59c-1.61-.77-14.67-6.54-16.62,7.29,0,0,5.79,3.43,9.85-.74,3.99-4.09,3.51-4.86,6.76-6.39,.07-.03,.08-.13,.01-.16Z" fill="#7ccf92" stroke="#002346" stroke-miterlimit="10"></path>
    <path d="M421.88,291.88s5.41,.62,8.76-4.41c0,0,1.95-3.07,4.47-2.51" fill="#7ccf92" stroke="#002346" stroke-miterlimit="10"></path>
    <path d="M402.94,284.87c1.61-.77,14.67-6.54,16.62,7.29,0,0-5.79,3.43-9.85-.74-3.99-4.09-3.51-4.86-6.76-6.39-.07-.03-.08-.13-.01-.16Z" fill="#7ccf92" stroke="#002346" stroke-miterlimit="10"></path>
    <path d="M419.56,292.16s-5.41,.62-8.76-4.41c0,0-1.95-3.07-4.47-2.51" fill="#7ccf92" stroke="#002346" stroke-miterlimit="10"></path>
    <path d="M369.06,333.7l7.08-4.57c2.55-1.02,8.72-9.72,9.53-12.35l3.2-10.41c.93-3.02,4.1-4.74,7.14-3.87h0c2.97,.85,4.76,3.88,4.06,6.89l-2.53,10.96c-.48,2.08-.31,4.28,.58,6.22,.96,2.1,2.03,5.39,1.95,9.51-.05,2.43,1.05,4.76,2.92,6.32,5.49,4.57,12.11,12.21,24.48,7,2.75-1.16,6.01-4.39,7.26-7.11l4.3-9.33c1.17-2.54,4.02-3.84,6.71-3.08h0c3.25,.93,4.97,4.48,3.68,7.61l-7.25,17.6c-.71,1.72-2.08,3.09-3.81,3.79l-54.75,22.26-14.58-47.45Z" fill="#f0b1bf" stroke="#002346" stroke-miterlimit="10"></path>
    <g>
      <path d="M497.44,267.4c.33,.1,.66,.22,.99,.34,3.07,1.16,6.45,1.41,9.52,.11,2.91-1.24,5.88-1.81,9.04-1.24,3.89,.7,7.61,3,9.79,6.32,3.15,4.8,2.49,11.27,1.39,16.62-1.15,5.55-3.45,10.93-6.98,15.39-1.35,1.7-2.87,3.22-4.54,4.59-2.38,1.95-5.24,3.13-8.36,2.74-2.01-.25-3.98-1.1-5.99-.88-1.3,.14-2.51,.7-3.79,.93-2.07,.37-4.22-.17-6.08-1.16-2.94-1.57-5.23-4.1-7.24-6.7-3.03-3.9-5.59-8.17-6.8-12.99-2.15-8.53-.95-20.22,8.38-23.85,3.4-1.33,7.23-1.29,10.7-.21Z" fill="#fbe493" stroke="#002346" stroke-miterlimit="10"></path>
      <path d="M507.34,260.4c.13,.62,.54,1.68,1.89,1.85,.21,.03,.3,.28,.13,.42-1.49,1.24-5.62,5.29-4.82,11.64l-2.04-.2s-1.07-8.52,4.43-13.83c.13-.13,.37-.06,.4,.12Z" fill="#fff" stroke="#002346" stroke-miterlimit="10"></path>
      <path d="M484.42,260.66c1.77-.85,16.11-7.18,18.26,8.01,0,0-6.36,3.76-10.82-.81-4.38-4.5-3.86-5.34-7.42-7.02-.08-.04-.09-.14-.01-.18Z" fill="#329900"></path>
      <path d="M484.42,260.66c1.77-.85,16.11-7.18,18.26,8.01,0,0-6.36,3.76-10.82-.81-4.38-4.5-3.86-5.34-7.42-7.02-.08-.04-.09-.14-.01-.18Z" fill="#329900"></path>
      <path d="M484.42,260.66c1.77-.85,16.11-7.18,18.26,8.01,0,0-6.36,3.76-10.82-.81-4.38-4.5-3.86-5.34-7.42-7.02-.08-.04-.09-.14-.01-.18Z" fill="#7ccf92" stroke="#002346" stroke-miterlimit="10"></path>
      <path d="M498.63,273.18s4.93,2.98,9.88,.04" fill="none" stroke="#002346" stroke-linecap="round" stroke-linejoin="round"></path>
      <path d="M485.77,277.09s-3.98,7.89,1.91,17.8" fill="none" stroke="#fff" stroke-linecap="round" stroke-linejoin="round"></path>
    </g>
    <path d="M633.56,273.11h-17.56c-23.81,0-44.25,16.94-48.67,40.34l-3.15,16.65-7.69-9.23-38.47,35.39,41.54,60.01s15.39,15.39,32.31,1.54l-1.77,49.24h138.71l-6.15-20s33.85,1.54,30.77-32.31l-19.86-112.93c-2.77-15.73-16.3-27.28-32.26-27.55l-67.75-1.13Z" fill="#fbe493" stroke="#002346" stroke-miterlimit="10"></path>
    <path d="M184.13,260.13h0c40.85,0,74.01,33.16,74.01,74.01v132.89H110.12v-132.89c0-40.85,33.16-74.01,74.01-74.01Z" fill="#fbe493" stroke="#002346" stroke-miterlimit="10"></path>
    <line x1="682.66" y1="330.09" x2="692.23" y2="373.33" fill="none" stroke="#002346" stroke-linecap="round" stroke-linejoin="round"></line>
    <path d="M591.88,417.8s1.54-9.23,3.08-38.47v-50.78" fill="none" stroke="#002346" stroke-linecap="round" stroke-linejoin="round"></path>
    <line x1="564.18" y1="330.09" x2="582.65" y2="356.25" fill="none" stroke="#002346" stroke-linecap="round" stroke-linejoin="round"></line>
    <path d="M465.38,299.87s-6.5-1.84-8.56,3.04c-.24,.58-.04,1.25,.47,1.62l21.94,15.79s.33-8.68,.33-10.22-14.18-10.22-14.18-10.22Z" fill="#f0b1bf" stroke="#002346" stroke-miterlimit="10"></path>
    <path d="M161.82,248.21s-43.85-4.29-66.93,26.49l-40.01,72.32s-18.46,38.47,9.23,53.85c0,0,23.08,16.93,46.16-4.62v50.78h50.78l.77-198.82Z" fill="#7073c2" stroke="#002346" stroke-linecap="round" stroke-linejoin="round"></path>
    <polyline points="110.27 396.26 134.89 377.79 114.89 330.09 79.5 357.79" fill="none" stroke="#002346" stroke-linecap="round" stroke-linejoin="round"></polyline>
    <path d="M110.27,288.55s-13.61,22.66-12.19,54.41" fill="none" stroke="#002346" stroke-linecap="round" stroke-linejoin="round"></path>
    <path d="M215.94,251.08s38.97,6.7,52.82,35.93l29.24,67.7,70.78-23.08,15.39,52.32-66.53,27.94c-10.69,4.49-22.4,6.23-33.87,4.56-11.92-1.73-24.23-7.12-25.77-21.73v50.78h-56.93l1.42-187.68s8.35-1.12,13.47-6.73Z" fill="#7073c2" stroke="#002346" stroke-linecap="round" stroke-linejoin="round"></path>
    <path d="M251.83,290.09s32.31,44.62,6.15,104.63" fill="none" stroke="#002346" stroke-linecap="round" stroke-linejoin="round"></path>
    <line x1="297.99" y1="354.71" x2="293.37" y2="370.1" fill="none" stroke="#002346" stroke-linecap="round" stroke-linejoin="round"></line>
    <path d="M161.05,231.62h41.54v36.16c0,11.46-9.31,20.77-20.77,20.77h0c-11.46,0-20.77-9.31-20.77-20.77v-36.16h0Z" fill="#f0b1bf" stroke="#002346" stroke-miterlimit="10"></path>
    <rect x="171.82" y="176.23" width="53.85" height="81.55" rx="26.93" ry="26.93" fill="#f0b1bf" stroke="#002346" stroke-miterlimit="10"></rect>
    <path d="M521.1,353.17l-20-29.24h-10.91c-3.95,0-7.8-1.24-10.96-3.61-2.58-1.94-5.39-4.76-7.37-8.7l-9.35-17.54c-1.59-2.98-.29-6.68,2.82-8.02h0c2.81-1.2,6.06,0,7.43,2.72l.65,1.29s3.08-10.77,10.77-3.08l6.15,9.23s-1.54-9.23,4.62-10.77c0,0,6.15-1.54,7.69,7.69l3.56,15.44c.61,2.62,3.48,4.05,5.91,2.88,5.82-2.79,15.05-9.93,17.14-27.55,0,0,7.23-3.08,8.77,9.23v12.31l15.5,18.57-32.42,29.13Z" fill="#f0b1bf" stroke="#002346" stroke-miterlimit="10"></path>
    <line x1="501.1" y1="323.94" x2="510.33" y2="323.94" fill="none" stroke="#002346" stroke-linecap="round" stroke-linejoin="round"></line>
    <line x1="473.4" y1="290.09" x2="484.17" y2="313.17" fill="none" stroke="#002346" stroke-linecap="round" stroke-linejoin="round"></line>
    <line x1="489.56" y1="294.81" x2="494.94" y2="311.63" fill="none" stroke="#002346" stroke-linecap="round" stroke-linejoin="round"></line>
    <path d="M419.22,285.53c.1,1.27,.74,6.47,.26,10.6h2.51s-.49-7.68,.18-10.29c.03-.13-.08-.25-.21-.22-.43,.1-1.29,.19-2.5-.27-.12-.05-.25,.05-.24,.18Z" fill="#fff" stroke="#002346" stroke-miterlimit="10"></path>
    <g>
      <g>
        <rect x="138.14" y="282.24" width="47.57" height="52.69" fill="#438dca" stroke="#002346" stroke-miterlimit="10"></rect>
        <rect x="135.22" y="278.95" width="53.42" height="5.12" rx="2.56" ry="2.56" fill="#fff" stroke="#002346" stroke-miterlimit="10"></rect>
        <rect x="135.22" y="332.37" width="53.42" height="5.12" rx="2.56" ry="2.56" fill="#fff" stroke="#002346" stroke-miterlimit="10"></rect>
        <ellipse cx="161.93" cy="309.68" rx="15.73" ry="10.98" fill="#fff" stroke="#002346" stroke-miterlimit="10"></ellipse>
      </g>
      <path d="M114.89,330.09l19.4-37.41c1.28-2.47,3.99-3.87,6.75-3.47h0c3.45,.49,5.92,3.61,5.6,7.08l-.97,10.72,23.74,1.25c6.41,.34,9.18,8.49,4.14,12.46-.06,.05-.12,.09-.18,.14,0,0,6.15,7.69-1.54,13.85,0,0,3.08,7.69-6.15,10.77,0,0,6.15,10.77-6.15,12.31h-10.77l-14.6,18.34-19.25-46.04Z" fill="#f0b1bf" stroke="#002346" stroke-miterlimit="10"></path>
      <line x1="145.66" y1="307.01" x2="139.5" y2="307.01" fill="none" stroke="#002346" stroke-linecap="round" stroke-linejoin="round"></line>
      <line x1="173.54" y1="320.72" x2="148.74" y2="320.72" fill="none" stroke="#002346" stroke-linecap="round" stroke-linejoin="round"></line>
      <line x1="165.66" y1="345.48" x2="148.74" y2="345.48" fill="none" stroke="#002346" stroke-linecap="round" stroke-linejoin="round"></line>
      <line x1="171.82" y1="334.71" x2="148.74" y2="334.71" fill="none" stroke="#002346" stroke-linecap="round" stroke-linejoin="round"></line>
    </g>
    <g>
      <g>
        <rect x="614.81" y="324.24" width="47.57" height="52.69" transform="translate(1277.19 701.17) rotate(-180)" fill="#438dca" stroke="#002346" stroke-miterlimit="10"></rect>
        <rect x="611.89" y="320.95" width="53.42" height="5.12" rx="2.56" ry="2.56" transform="translate(1277.19 647.02) rotate(-180)" fill="#fff" stroke="#002346" stroke-miterlimit="10"></rect>
        <rect x="611.89" y="374.37" width="53.42" height="5.12" rx="2.56" ry="2.56" transform="translate(1277.19 753.86) rotate(180)" fill="#fff" stroke="#002346" stroke-miterlimit="10"></rect>
        <ellipse cx="638.6" cy="351.68" rx="15.73" ry="10.98" fill="#fff" stroke="#002346" stroke-miterlimit="10"></ellipse>
      </g>
      <path d="M685.64,372.09l-19.4-37.41c-1.28-2.47-3.99-3.87-6.75-3.47h0c-3.45,.49-5.92,3.61-5.6,7.08l.97,10.72-23.74,1.25c-6.41,.34-9.18,8.49-4.14,12.46,.06,.05,.12,.09,.18,.14,0,0-6.15,7.69,1.54,13.85,0,0-3.08,7.69,6.15,10.77,0,0-6.15,10.77,6.15,12.31h10.77s14.6,18.34,14.6,18.34l19.25-46.04Z" fill="#f0b1bf" stroke="#002346" stroke-miterlimit="10"></path>
      <line x1="654.86" y1="349.01" x2="661.02" y2="349.01" fill="none" stroke="#002346" stroke-linecap="round" stroke-linejoin="round"></line>
      <line x1="626.99" y1="362.72" x2="651.79" y2="362.72" fill="none" stroke="#002346" stroke-linecap="round" stroke-linejoin="round"></line>
      <line x1="634.86" y1="387.48" x2="651.79" y2="387.48" fill="none" stroke="#002346" stroke-linecap="round" stroke-linejoin="round"></line>
      <line x1="628.71" y1="376.71" x2="651.79" y2="376.71" fill="none" stroke="#002346" stroke-linecap="round" stroke-linejoin="round"></line>
    </g>
    <path d="M722.67,447.03c-4.03,.35-8.17-.16-11.93-1.01-6.92-1.57-13.44-4.59-19.25-8.66l-25.75-18.02,20-49.24,35.39,16.93" fill="#fbe493" stroke="#002346" stroke-linecap="round" stroke-linejoin="round"></path>
    <rect x="74.88" y="452.07" width="716.02" height="32.75" fill="#fff" stroke="#002346" stroke-miterlimit="10"></rect>
    <g>
      <g>
        <polygon points="97.95 491.52 25.01 628.47 215.56 628.47 255.75 491.52 97.95 491.52" fill="#fff" stroke="#002346" stroke-miterlimit="10"></polygon>
        <polygon points="102.42 498.96 39.9 618.05 209.6 618.05 245.33 498.96 102.42 498.96" fill="#e6e6e6" stroke="#002346" stroke-miterlimit="10"></polygon>
        <polygon points="25.01 628.47 25.01 657.76 216.3 657.76 215.56 628.47 25.01 628.47" fill="#e6e6e6" stroke="#002346" stroke-miterlimit="10"></polygon>
        <path d="M255.75,491.67v32.92l-39.28,132.54c-.03,.1-.18,.08-.18-.02l-.74-28.64,40.15-136.8s.04-.02,.04,0Z" fill="#ccc" stroke="#002346" stroke-miterlimit="10"></path>
        <polygon points="102.42 498.96 102.42 539.15 233.08 539.15 245.33 498.96 102.42 498.96" fill="#b3b3b3" stroke="#002346" stroke-miterlimit="10"></polygon>
        <path d="M102.42,539.15l-39.24,78.77-23.28,.13,62.08-118.25c.11-.22,.44-.14,.44,.11v39.25Z" fill="#ccc" stroke="#002346" stroke-miterlimit="10"></path>
        <path d="M200,617.93l-109.49,.12c-13.4-35.73,5.95-58.06,5.95-58.06,5.48-6.4,11.52-6.06,15.38-4.84,2.43,.74,3.97,1.86,3.97,1.86,0,0,4.47-5.95,13.4,1.49,0,0,4.47-5.95,17.86-1.49,0,0,5.95-7.44,14.89-5.95,0,0,.63-2.55,4.41-3.89,1.18-.42,2.65-.73,4.5-.8,2.69-.1,5.37,.4,7.9,1.35,7.61,2.84,25.51,11.45,27.85,30.13,0,0,4.6,23.58-6.62,40.07Z" fill="#7073c2" stroke="#002346" stroke-linecap="round" stroke-linejoin="round"></path>
        <path d="M115.82,557.02s-19.89,13.15-12.92,60.91" fill="none" stroke="#002346" stroke-linecap="round" stroke-linejoin="round"></path>
        <path d="M129.22,558.5s-8.24,22.91-3.37,59.09" fill="none" stroke="#002346" stroke-linecap="round" stroke-linejoin="round"></path>
        <path d="M147.08,557.02s18.77,17.62,15.34,60.91" fill="none" stroke="#002346" stroke-linecap="round" stroke-linejoin="round"></path>
        <path d="M161.96,551.06s26.8,8.93,26.8,65.5" fill="none" stroke="#002346" stroke-linecap="round" stroke-linejoin="round"></path>
      </g>
      <path d="M166.43,546.6l-.06,.58c-3.78,1.34-4.41,3.89-4.41,3.89-8.93-1.49-14.89,5.95-14.89,5.95-13.4-4.47-17.86,1.49-17.86,1.49-8.93-7.44-13.4-1.49-13.4-1.49,0,0-1.55-1.12-3.97-1.86l.03-.07s23.3-4.02,21.81-24.86l8.93-2.98s2.98,14.89,23.82,19.35Z" fill="#7ccf92" stroke="#002346" stroke-miterlimit="10"></path>
    </g>
    <g>
      <polygon points="767.81 490.52 840.75 627.47 650.2 627.47 610.01 490.52 767.81 490.52" fill="#fff" stroke="#002346" stroke-miterlimit="10"></polygon>
      <polygon points="763.34 497.96 825.86 617.05 656.16 617.05 620.43 497.96 763.34 497.96" fill="#e6e6e6" stroke="#002346" stroke-miterlimit="10"></polygon>
      <polygon points="840.75 627.47 840.75 656.76 649.46 656.76 650.2 627.47 840.75 627.47" fill="#e6e6e6" stroke="#002346" stroke-miterlimit="10"></polygon>
      <path d="M610.01,490.67l2,32.92,37.28,132.54c.03,.1,.18,.08,.18-.02l.74-28.64-40.15-136.8s-.04-.02-.04,0Z" fill="#ccc" stroke="#002346" stroke-miterlimit="10"></path>
      <polygon points="763.34 497.96 763.34 538.15 632.68 538.15 620.43 497.96 763.34 497.96" fill="#b3b3b3" stroke="#002346" stroke-miterlimit="10"></polygon>
      <path d="M763.34,538.15l39.24,78.77,23.28,.13-62.08-118.25c-.11-.22-.44-.14-.44,.11v39.25Z" fill="#ccc" stroke="#002346" stroke-miterlimit="10"></path>
    </g>
    <g>
      <polygon points="227.6 632.97 425.09 632.85 426.64 492.07 262.65 492.07 227.6 632.97" fill="#fff" stroke="#002346" stroke-miterlimit="10"></polygon>
      <polygon points="270.38 499.8 239.44 623.57 415.81 625.12 417.36 499.8 270.38 499.8" fill="#b3b3b3" stroke="#002346" stroke-miterlimit="10"></polygon>
      <path d="M270.38,500.62v40.95l-18.56,81.99h-12.38l30.74-122.97c.03-.12,.2-.09,.2,.02Z" fill="#ccc" stroke="#002346" stroke-miterlimit="10"></path>
      <polygon points="270.38 541.57 416.64 541.57 415.81 625.12 251.82 623.57 270.38 541.57" fill="#e6e6e6" stroke="#002346" stroke-miterlimit="10"></polygon>
      <polygon points="227.6 632.46 227.6 657.76 425.09 657.76 425.09 632.42 227.6 632.46" fill="#e6e6e6" stroke="#002346" stroke-miterlimit="10"></polygon>
      <g>
        <g>
          <path d="M286.44,523.4c.33,.1,.66,.22,.99,.34,3.07,1.16,6.45,1.41,9.52,.11,2.91-1.24,5.88-1.81,9.04-1.24,3.89,.7,7.61,3,9.79,6.32,3.15,4.8,2.49,11.27,1.39,16.62-1.15,5.55-3.45,10.93-6.98,15.39-1.35,1.7-2.87,3.22-4.54,4.59-2.38,1.95-5.24,3.13-8.36,2.74-2.01-.25-3.98-1.1-5.99-.88-1.3,.14-2.51,.7-3.79,.93-2.07,.37-4.22-.17-6.08-1.16-2.94-1.57-5.23-4.1-7.24-6.7-3.03-3.9-5.59-8.17-6.8-12.99-2.15-8.53-.95-20.22,8.38-23.85,3.4-1.33,7.23-1.29,10.7-.21Z" fill="#fbe493" stroke="#002346" stroke-miterlimit="10"></path>
          <path d="M296.34,516.4c.13,.62,.54,1.68,1.89,1.85,.21,.03,.3,.28,.13,.42-1.49,1.24-5.62,5.29-4.82,11.64l-2.04-.2s-1.07-8.52,4.43-13.83c.13-.13,.37-.06,.4,.12Z" fill="#fff" stroke="#002346" stroke-miterlimit="10"></path>
          <path d="M273.42,516.66c1.77-.85,16.11-7.18,18.26,8.01,0,0-6.36,3.76-10.82-.81-4.38-4.5-3.86-5.34-7.42-7.02-.08-.04-.09-.14-.01-.18Z" fill="#329900"></path>
          <path d="M273.42,516.66c1.77-.85,16.11-7.18,18.26,8.01,0,0-6.36,3.76-10.82-.81-4.38-4.5-3.86-5.34-7.42-7.02-.08-.04-.09-.14-.01-.18Z" fill="#329900"></path>
          <path d="M273.42,516.66c1.77-.85,16.11-7.18,18.26,8.01,0,0-6.36,3.76-10.82-.81-4.38-4.5-3.86-5.34-7.42-7.02-.08-.04-.09-.14-.01-.18Z" fill="#7ccf92" stroke="#002346" stroke-miterlimit="10"></path>
          <path d="M287.63,529.18s4.93,2.98,9.88,.04" fill="none" stroke="#002346" stroke-linecap="round" stroke-linejoin="round"></path>
          <path d="M274.77,533.09s-3.98,7.89,1.91,17.8" fill="none" stroke="#fff" stroke-linecap="round" stroke-linejoin="round"></path>
        </g>
        <g>
          <path d="M335.94,523.4c.33,.1,.66,.22,.99,.34,3.07,1.16,6.45,1.41,9.52,.11,2.91-1.24,5.88-1.81,9.04-1.24,3.89,.7,7.61,3,9.79,6.32,3.15,4.8,2.49,11.27,1.39,16.62-1.15,5.55-3.45,10.93-6.98,15.39-1.35,1.7-2.87,3.22-4.54,4.59-2.38,1.95-5.24,3.13-8.36,2.74-2.01-.25-3.98-1.1-5.99-.88-1.3,.14-2.51,.7-3.79,.93-2.07,.37-4.22-.17-6.08-1.16-2.94-1.57-5.23-4.1-7.24-6.7-3.03-3.9-5.59-8.17-6.8-12.99-2.15-8.53-.95-20.22,8.38-23.85,3.4-1.33,7.23-1.29,10.7-.21Z" fill="#fbe493" stroke="#002346" stroke-miterlimit="10"></path>
          <path d="M345.84,516.4c.13,.62,.54,1.68,1.89,1.85,.21,.03,.3,.28,.13,.42-1.49,1.24-5.62,5.29-4.82,11.64l-2.04-.2s-1.07-8.52,4.43-13.83c.13-.13,.37-.06,.4,.12Z" fill="#fff" stroke="#002346" stroke-miterlimit="10"></path>
          <path d="M322.92,516.66c1.77-.85,16.11-7.18,18.26,8.01,0,0-6.36,3.76-10.82-.81-4.38-4.5-3.86-5.34-7.42-7.02-.08-.04-.09-.14-.01-.18Z" fill="#329900"></path>
          <path d="M322.92,516.66c1.77-.85,16.11-7.18,18.26,8.01,0,0-6.36,3.76-10.82-.81-4.38-4.5-3.86-5.34-7.42-7.02-.08-.04-.09-.14-.01-.18Z" fill="#329900"></path>
          <path d="M322.92,516.66c1.77-.85,16.11-7.18,18.26,8.01,0,0-6.36,3.76-10.82-.81-4.38-4.5-3.86-5.34-7.42-7.02-.08-.04-.09-.14-.01-.18Z" fill="#7ccf92" stroke="#002346" stroke-miterlimit="10"></path>
          <path d="M337.13,529.18s4.93,2.98,9.88,.04" fill="none" stroke="#002346" stroke-linecap="round" stroke-linejoin="round"></path>
          <path d="M324.27,533.09s-3.98,7.89,1.91,17.8" fill="none" stroke="#fff" stroke-linecap="round" stroke-linejoin="round"></path>
        </g>
        <g>
          <path d="M385.44,523.4c.33,.1,.66,.22,.99,.34,3.07,1.16,6.45,1.41,9.52,.11,2.91-1.24,5.88-1.81,9.04-1.24,3.89,.7,7.61,3,9.79,6.32,3.15,4.8,2.49,11.27,1.39,16.62-1.15,5.55-3.45,10.93-6.98,15.39-1.35,1.7-2.87,3.22-4.54,4.59-2.38,1.95-5.24,3.13-8.36,2.74-2.01-.25-3.98-1.1-5.99-.88-1.3,.14-2.51,.7-3.79,.93-2.07,.37-4.22-.17-6.08-1.16-2.94-1.57-5.23-4.1-7.24-6.7-3.03-3.9-5.59-8.17-6.8-12.99-2.15-8.53-.95-20.22,8.38-23.85,3.4-1.33,7.23-1.29,10.7-.21Z" fill="#fbe493" stroke="#002346" stroke-miterlimit="10"></path>
          <path d="M395.34,516.4c.13,.62,.54,1.68,1.89,1.85,.21,.03,.3,.28,.13,.42-1.49,1.24-5.62,5.29-4.82,11.64l-2.04-.2s-1.07-8.52,4.43-13.83c.13-.13,.37-.06,.4,.12Z" fill="#fff" stroke="#002346" stroke-miterlimit="10"></path>
          <path d="M372.42,516.66c1.77-.85,16.11-7.18,18.26,8.01,0,0-6.36,3.76-10.82-.81-4.38-4.5-3.86-5.34-7.42-7.02-.08-.04-.09-.14-.01-.18Z" fill="#329900"></path>
          <path d="M372.42,516.66c1.77-.85,16.11-7.18,18.26,8.01,0,0-6.36,3.76-10.82-.81-4.38-4.5-3.86-5.34-7.42-7.02-.08-.04-.09-.14-.01-.18Z" fill="#329900"></path>
          <path d="M372.42,516.66c1.77-.85,16.11-7.18,18.26,8.01,0,0-6.36,3.76-10.82-.81-4.38-4.5-3.86-5.34-7.42-7.02-.08-.04-.09-.14-.01-.18Z" fill="#7ccf92" stroke="#002346" stroke-miterlimit="10"></path>
          <path d="M386.63,529.18s4.93,2.98,9.88,.04" fill="none" stroke="#002346" stroke-linecap="round" stroke-linejoin="round"></path>
          <path d="M373.77,533.09s-3.98,7.89,1.91,17.8" fill="none" stroke="#fff" stroke-linecap="round" stroke-linejoin="round"></path>
        </g>
      </g>
      <g>
        <g>
          <path d="M282.44,549.4c.33,.1,.66,.22,.99,.34,3.07,1.16,6.45,1.41,9.52,.11,2.91-1.24,5.88-1.81,9.04-1.24,3.89,.7,7.61,3,9.79,6.32,3.15,4.8,2.49,11.27,1.39,16.62-1.15,5.55-3.45,10.93-6.98,15.39-1.35,1.7-2.87,3.22-4.54,4.59-2.38,1.95-5.24,3.13-8.36,2.74-2.01-.25-3.98-1.1-5.99-.88-1.3,.14-2.51,.7-3.79,.93-2.07,.37-4.22-.17-6.08-1.16-2.94-1.57-5.23-4.1-7.24-6.7-3.03-3.9-5.59-8.17-6.8-12.99-2.15-8.53-.95-20.22,8.38-23.85,3.4-1.33,7.23-1.29,10.7-.21Z" fill="#fbe493" stroke="#002346" stroke-miterlimit="10"></path>
          <path d="M292.34,542.4c.13,.62,.54,1.68,1.89,1.85,.21,.03,.3,.28,.13,.42-1.49,1.24-5.62,5.29-4.82,11.64l-2.04-.2s-1.07-8.52,4.43-13.83c.13-.13,.37-.06,.4,.12Z" fill="#fff" stroke="#002346" stroke-miterlimit="10"></path>
          <path d="M269.42,542.66c1.77-.85,16.11-7.18,18.26,8.01,0,0-6.36,3.76-10.82-.81-4.38-4.5-3.86-5.34-7.42-7.02-.08-.04-.09-.14-.01-.18Z" fill="#329900"></path>
          <path d="M269.42,542.66c1.77-.85,16.11-7.18,18.26,8.01,0,0-6.36,3.76-10.82-.81-4.38-4.5-3.86-5.34-7.42-7.02-.08-.04-.09-.14-.01-.18Z" fill="#329900"></path>
          <path d="M269.42,542.66c1.77-.85,16.11-7.18,18.26,8.01,0,0-6.36,3.76-10.82-.81-4.38-4.5-3.86-5.34-7.42-7.02-.08-.04-.09-.14-.01-.18Z" fill="#7ccf92" stroke="#002346" stroke-miterlimit="10"></path>
          <path d="M283.63,555.18s4.93,2.98,9.88,.04" fill="none" stroke="#002346" stroke-linecap="round" stroke-linejoin="round"></path>
          <path d="M270.77,559.09s-3.98,7.89,1.91,17.8" fill="none" stroke="#fff" stroke-linecap="round" stroke-linejoin="round"></path>
        </g>
        <g>
          <path d="M331.94,549.4c.33,.1,.66,.22,.99,.34,3.07,1.16,6.45,1.41,9.52,.11,2.91-1.24,5.88-1.81,9.04-1.24,3.89,.7,7.61,3,9.79,6.32,3.15,4.8,2.49,11.27,1.39,16.62-1.15,5.55-3.45,10.93-6.98,15.39-1.35,1.7-2.87,3.22-4.54,4.59-2.38,1.95-5.24,3.13-8.36,2.74-2.01-.25-3.98-1.1-5.99-.88-1.3,.14-2.51,.7-3.79,.93-2.07,.37-4.22-.17-6.08-1.16-2.94-1.57-5.23-4.1-7.24-6.7-3.03-3.9-5.59-8.17-6.8-12.99-2.15-8.53-.95-20.22,8.38-23.85,3.4-1.33,7.23-1.29,10.7-.21Z" fill="#fbe493" stroke="#002346" stroke-miterlimit="10"></path>
          <path d="M341.84,542.4c.13,.62,.54,1.68,1.89,1.85,.21,.03,.3,.28,.13,.42-1.49,1.24-5.62,5.29-4.82,11.64l-2.04-.2s-1.07-8.52,4.43-13.83c.13-.13,.37-.06,.4,.12Z" fill="#fff" stroke="#002346" stroke-miterlimit="10"></path>
          <path d="M318.92,542.66c1.77-.85,16.11-7.18,18.26,8.01,0,0-6.36,3.76-10.82-.81-4.38-4.5-3.86-5.34-7.42-7.02-.08-.04-.09-.14-.01-.18Z" fill="#329900"></path>
          <path d="M318.92,542.66c1.77-.85,16.11-7.18,18.26,8.01,0,0-6.36,3.76-10.82-.81-4.38-4.5-3.86-5.34-7.42-7.02-.08-.04-.09-.14-.01-.18Z" fill="#329900"></path>
          <path d="M318.92,542.66c1.77-.85,16.11-7.18,18.26,8.01,0,0-6.36,3.76-10.82-.81-4.38-4.5-3.86-5.34-7.42-7.02-.08-.04-.09-.14-.01-.18Z" fill="#7ccf92" stroke="#002346" stroke-miterlimit="10"></path>
          <path d="M333.13,555.18s4.93,2.98,9.88,.04" fill="none" stroke="#002346" stroke-linecap="round" stroke-linejoin="round"></path>
          <path d="M320.27,559.09s-3.98,7.89,1.91,17.8" fill="none" stroke="#fff" stroke-linecap="round" stroke-linejoin="round"></path>
        </g>
        <g>
          <path d="M381.44,549.4c.33,.1,.66,.22,.99,.34,3.07,1.16,6.45,1.41,9.52,.11,2.91-1.24,5.88-1.81,9.04-1.24,3.89,.7,7.61,3,9.79,6.32,3.15,4.8,2.49,11.27,1.39,16.62-1.15,5.55-3.45,10.93-6.98,15.39-1.35,1.7-2.87,3.22-4.54,4.59-2.38,1.95-5.24,3.13-8.36,2.74-2.01-.25-3.98-1.1-5.99-.88-1.3,.14-2.51,.7-3.79,.93-2.07,.37-4.22-.17-6.08-1.16-2.94-1.57-5.23-4.1-7.24-6.7-3.03-3.9-5.59-8.17-6.8-12.99-2.15-8.53-.95-20.22,8.38-23.85,3.4-1.33,7.23-1.29,10.7-.21Z" fill="#fbe493" stroke="#002346" stroke-miterlimit="10"></path>
          <path d="M391.34,542.4c.13,.62,.54,1.68,1.89,1.85,.21,.03,.3,.28,.13,.42-1.49,1.24-5.62,5.29-4.82,11.64l-2.04-.2s-1.07-8.52,4.43-13.83c.13-.13,.37-.06,.4,.12Z" fill="#fff" stroke="#002346" stroke-miterlimit="10"></path>
          <path d="M368.42,542.66c1.77-.85,16.11-7.18,18.26,8.01,0,0-6.36,3.76-10.82-.81-4.38-4.5-3.86-5.34-7.42-7.02-.08-.04-.09-.14-.01-.18Z" fill="#329900"></path>
          <path d="M368.42,542.66c1.77-.85,16.11-7.18,18.26,8.01,0,0-6.36,3.76-10.82-.81-4.38-4.5-3.86-5.34-7.42-7.02-.08-.04-.09-.14-.01-.18Z" fill="#329900"></path>
          <path d="M368.42,542.66c1.77-.85,16.11-7.18,18.26,8.01,0,0-6.36,3.76-10.82-.81-4.38-4.5-3.86-5.34-7.42-7.02-.08-.04-.09-.14-.01-.18Z" fill="#7ccf92" stroke="#002346" stroke-miterlimit="10"></path>
          <path d="M382.63,555.18s4.93,2.98,9.88,.04" fill="none" stroke="#002346" stroke-linecap="round" stroke-linejoin="round"></path>
          <path d="M369.77,559.09s-3.98,7.89,1.91,17.8" fill="none" stroke="#fff" stroke-linecap="round" stroke-linejoin="round"></path>
        </g>
      </g>
      <g>
        <g>
          <path d="M281.44,578.4c.33,.1,.66,.22,.99,.34,3.07,1.16,6.45,1.41,9.52,.11,2.91-1.24,5.88-1.81,9.04-1.24,3.89,.7,7.61,3,9.79,6.32,3.15,4.8,2.49,11.27,1.39,16.62-1.15,5.55-3.45,10.93-6.98,15.39-1.35,1.7-2.87,3.22-4.54,4.59-2.38,1.95-5.24,3.13-8.36,2.74-2.01-.25-3.98-1.1-5.99-.88-1.3,.14-2.51,.7-3.79,.93-2.07,.37-4.22-.17-6.08-1.16-2.94-1.57-5.23-4.1-7.24-6.7-3.03-3.9-5.59-8.17-6.8-12.99-2.15-8.53-.95-20.22,8.38-23.85,3.4-1.33,7.23-1.29,10.7-.21Z" fill="#fbe493" stroke="#002346" stroke-miterlimit="10"></path>
          <path d="M291.34,571.4c.13,.62,.54,1.68,1.89,1.85,.21,.03,.3,.28,.13,.42-1.49,1.24-5.62,5.29-4.82,11.64l-2.04-.2s-1.07-8.52,4.43-13.83c.13-.13,.37-.06,.4,.12Z" fill="#fff" stroke="#002346" stroke-miterlimit="10"></path>
          <path d="M268.42,571.66c1.77-.85,16.11-7.18,18.26,8.01,0,0-6.36,3.76-10.82-.81-4.38-4.5-3.86-5.34-7.42-7.02-.08-.04-.09-.14-.01-.18Z" fill="#329900"></path>
          <path d="M268.42,571.66c1.77-.85,16.11-7.18,18.26,8.01,0,0-6.36,3.76-10.82-.81-4.38-4.5-3.86-5.34-7.42-7.02-.08-.04-.09-.14-.01-.18Z" fill="#329900"></path>
          <path d="M268.42,571.66c1.77-.85,16.11-7.18,18.26,8.01,0,0-6.36,3.76-10.82-.81-4.38-4.5-3.86-5.34-7.42-7.02-.08-.04-.09-.14-.01-.18Z" fill="#7ccf92" stroke="#002346" stroke-miterlimit="10"></path>
          <path d="M282.63,584.18s4.93,2.98,9.88,.04" fill="none" stroke="#002346" stroke-linecap="round" stroke-linejoin="round"></path>
          <path d="M269.77,588.09s-3.98,7.89,1.91,17.8" fill="none" stroke="#fff" stroke-linecap="round" stroke-linejoin="round"></path>
        </g>
        <g>
          <path d="M330.94,578.4c.33,.1,.66,.22,.99,.34,3.07,1.16,6.45,1.41,9.52,.11,2.91-1.24,5.88-1.81,9.04-1.24,3.89,.7,7.61,3,9.79,6.32,3.15,4.8,2.49,11.27,1.39,16.62-1.15,5.55-3.45,10.93-6.98,15.39-1.35,1.7-2.87,3.22-4.54,4.59-2.38,1.95-5.24,3.13-8.36,2.74-2.01-.25-3.98-1.1-5.99-.88-1.3,.14-2.51,.7-3.79,.93-2.07,.37-4.22-.17-6.08-1.16-2.94-1.57-5.23-4.1-7.24-6.7-3.03-3.9-5.59-8.17-6.8-12.99-2.15-8.53-.95-20.22,8.38-23.85,3.4-1.33,7.23-1.29,10.7-.21Z" fill="#fbe493" stroke="#002346" stroke-miterlimit="10"></path>
          <path d="M340.84,571.4c.13,.62,.54,1.68,1.89,1.85,.21,.03,.3,.28,.13,.42-1.49,1.24-5.62,5.29-4.82,11.64l-2.04-.2s-1.07-8.52,4.43-13.83c.13-.13,.37-.06,.4,.12Z" fill="#fff" stroke="#002346" stroke-miterlimit="10"></path>
          <path d="M317.92,571.66c1.77-.85,16.11-7.18,18.26,8.01,0,0-6.36,3.76-10.82-.81-4.38-4.5-3.86-5.34-7.42-7.02-.08-.04-.09-.14-.01-.18Z" fill="#329900"></path>
          <path d="M317.92,571.66c1.77-.85,16.11-7.18,18.26,8.01,0,0-6.36,3.76-10.82-.81-4.38-4.5-3.86-5.34-7.42-7.02-.08-.04-.09-.14-.01-.18Z" fill="#329900"></path>
          <path d="M317.92,571.66c1.77-.85,16.11-7.18,18.26,8.01,0,0-6.36,3.76-10.82-.81-4.38-4.5-3.86-5.34-7.42-7.02-.08-.04-.09-.14-.01-.18Z" fill="#7ccf92" stroke="#002346" stroke-miterlimit="10"></path>
          <path d="M332.13,584.18s4.93,2.98,9.88,.04" fill="none" stroke="#002346" stroke-linecap="round" stroke-linejoin="round"></path>
          <path d="M319.27,588.09s-3.98,7.89,1.91,17.8" fill="none" stroke="#fff" stroke-linecap="round" stroke-linejoin="round"></path>
        </g>
        <g>
          <path d="M380.44,578.4c.33,.1,.66,.22,.99,.34,3.07,1.16,6.45,1.41,9.52,.11,2.91-1.24,5.88-1.81,9.04-1.24,3.89,.7,7.61,3,9.79,6.32,3.15,4.8,2.49,11.27,1.39,16.62-1.15,5.55-3.45,10.93-6.98,15.39-1.35,1.7-2.87,3.22-4.54,4.59-2.38,1.95-5.24,3.13-8.36,2.74-2.01-.25-3.98-1.1-5.99-.88-1.3,.14-2.51,.7-3.79,.93-2.07,.37-4.22-.17-6.08-1.16-2.94-1.57-5.23-4.1-7.24-6.7-3.03-3.9-5.59-8.17-6.8-12.99-2.15-8.53-.95-20.22,8.38-23.85,3.4-1.33,7.23-1.29,10.7-.21Z" fill="#fbe493" stroke="#002346" stroke-miterlimit="10"></path>
          <path d="M390.34,571.4c.13,.62,.54,1.68,1.89,1.85,.21,.03,.3,.28,.13,.42-1.49,1.24-5.62,5.29-4.82,11.64l-2.04-.2s-1.07-8.52,4.43-13.83c.13-.13,.37-.06,.4,.12Z" fill="#fff" stroke="#002346" stroke-miterlimit="10"></path>
          <path d="M367.42,571.66c1.77-.85,16.11-7.18,18.26,8.01,0,0-6.36,3.76-10.82-.81-4.38-4.5-3.86-5.34-7.42-7.02-.08-.04-.09-.14-.01-.18Z" fill="#329900"></path>
          <path d="M367.42,571.66c1.77-.85,16.11-7.18,18.26,8.01,0,0-6.36,3.76-10.82-.81-4.38-4.5-3.86-5.34-7.42-7.02-.08-.04-.09-.14-.01-.18Z" fill="#329900"></path>
          <path d="M367.42,571.66c1.77-.85,16.11-7.18,18.26,8.01,0,0-6.36,3.76-10.82-.81-4.38-4.5-3.86-5.34-7.42-7.02-.08-.04-.09-.14-.01-.18Z" fill="#7ccf92" stroke="#002346" stroke-miterlimit="10"></path>
          <path d="M381.63,584.18s4.93,2.98,9.88,.04" fill="none" stroke="#002346" stroke-linecap="round" stroke-linejoin="round"></path>
          <path d="M368.77,588.09s-3.98,7.89,1.91,17.8" fill="none" stroke="#fff" stroke-linecap="round" stroke-linejoin="round"></path>
        </g>
      </g>
    </g>
    <g>
      <polygon points="432.6 631.97 633.09 631.85 598.64 491.07 434.65 491.07 432.6 631.97" fill="#fff" stroke="#002346" stroke-miterlimit="10"></polygon>
      <polygon points="442.38 498.8 444.44 622.57 620.81 624.12 589.36 498.8 442.38 498.8" fill="#b3b3b3" stroke="#002346" stroke-miterlimit="10"></polygon>
      <path d="M442.38,499.62l28,40.95-.56,81.99h-25.38l-2.26-122.97c.03-.12,.2-.09,.2,.02Z" fill="#ccc" stroke="#002346" stroke-miterlimit="10"></path>
      <polygon points="470.38 540.57 568.14 539.13 592.14 624.13 469.14 623.13 470.38 540.57" fill="#e6e6e6" stroke="#002346" stroke-miterlimit="10"></polygon>
      <polygon points="432.6 631.46 432.6 656.76 633.09 656.76 633.09 631.42 432.6 631.46" fill="#e6e6e6" stroke="#002346" stroke-miterlimit="10"></polygon>
    </g>
    <polygon points="568.14 539.13 589.36 498.8 620.81 624.12 592.14 624.13 568.14 539.13" fill="#ccc" stroke="#002346" stroke-miterlimit="10"></polygon>
    <g>
      <path d="M465.61,553.15c.71-.55,1.61-1.2,2.69-1.86,4.5-2.78,9.71-4.2,15-4.32l15.16-.34c3.61-.08,6.66,2.66,6.95,6.26h0c.31,3.74-2.45,7.03-6.19,7.37l-15.08,1.37c-2.14,.19-4.29,.17-6.42-.09-3.75-.47-9.17-1.66-12.33-4.71-1.07-1.03-.97-2.77,.21-3.67Z" fill="#7ccf92" stroke="#002346" stroke-miterlimit="10"></path>
      <path d="M505.42,552.89s2.75-2.02,4.95,1.27c0,0,2.19,3.29,4.38,0" fill="none" stroke="#002346" stroke-linecap="round" stroke-linejoin="round"></path>
    </g>
    <g>
      <path d="M532.81,569.24c-.71,.55-1.61,1.2-2.69,1.86-4.5,2.78-9.71,4.2-15,4.32l-15.16,.34c-3.61,.08-6.66-2.66-6.95-6.26h0c-.31-3.74,2.45-7.03,6.19-7.37l15.08-1.37c2.14-.19,4.29-.17,6.42,.09,3.75,.47,9.17,1.66,12.33,4.71,1.07,1.03,.97,2.77-.21,3.67Z" fill="#7ccf92" stroke="#002346" stroke-miterlimit="10"></path>
      <path d="M493,569.5s-2.75,2.02-4.95-1.27c0,0-2.19-3.29-4.38,0" fill="none" stroke="#002346" stroke-linecap="round" stroke-linejoin="round"></path>
    </g>
    <g>
      <path d="M558.81,553.24c-.71,.55-1.61,1.2-2.69,1.86-4.5,2.78-9.71,4.2-15,4.32l-15.16,.34c-3.61,.08-6.66-2.66-6.95-6.26h0c-.31-3.74,2.45-7.03,6.19-7.37l15.08-1.37c2.14-.19,4.29-.17,6.42,.09,3.75,.47,9.17,1.66,12.33,4.71,1.07,1.03,.97,2.77-.21,3.67Z" fill="#7ccf92" stroke="#002346" stroke-miterlimit="10"></path>
      <path d="M519,553.5s-2.75,2.02-4.95-1.27c0,0-2.19-3.29-4.38,0" fill="none" stroke="#002346" stroke-linecap="round" stroke-linejoin="round"></path>
    </g>
    <g>
      <path d="M584.81,566.24c-.71,.55-1.61,1.2-2.69,1.86-4.5,2.78-9.71,4.2-15,4.32l-15.16,.34c-3.61,.08-6.66-2.66-6.95-6.26h0c-.31-3.74,2.45-7.03,6.19-7.37l15.08-1.37c2.14-.19,4.29-.17,6.42,.09,3.75,.47,9.17,1.66,12.33,4.71,1.07,1.03,.97,2.77-.21,3.67Z" fill="#7ccf92" stroke="#002346" stroke-miterlimit="10"></path>
      <path d="M545,566.5s-2.75,2.02-4.95-1.27c0,0-2.19-3.29-4.38,0" fill="none" stroke="#002346" stroke-linecap="round" stroke-linejoin="round"></path>
    </g>
    <g>
      <path d="M507.81,585.24c-.71,.55-1.61,1.2-2.69,1.86-4.5,2.78-9.71,4.2-15,4.32l-15.16,.34c-3.61,.08-6.66-2.66-6.95-6.26h0c-.31-3.74,2.45-7.03,6.19-7.37l15.08-1.37c2.14-.19,4.29-.17,6.42,.09,3.75,.47,9.17,1.66,12.33,4.71,1.07,1.03,.97,2.77-.21,3.67Z" fill="#7ccf92" stroke="#002346" stroke-miterlimit="10"></path>
      <path d="M468,585.5s-2.75,2.02-4.95-1.27c0,0-2.19-3.29-4.38,0" fill="none" stroke="#002346" stroke-linecap="round" stroke-linejoin="round"></path>
    </g>
    <g>
      <path d="M550.81,601.24c-.71,.55-1.61,1.2-2.69,1.86-4.5,2.78-9.71,4.2-15,4.32l-15.16,.34c-3.61,.08-6.66-2.66-6.95-6.26h0c-.31-3.74,2.45-7.03,6.19-7.37l15.08-1.37c2.14-.19,4.29-.17,6.42,.09,3.75,.47,9.17,1.66,12.33,4.71,1.07,1.03,.97,2.77-.21,3.67Z" fill="#7ccf92" stroke="#002346" stroke-miterlimit="10"></path>
      <path d="M511,601.5s-2.75,2.02-4.95-1.27c0,0-2.19-3.29-4.38,0" fill="none" stroke="#002346" stroke-linecap="round" stroke-linejoin="round"></path>
    </g>
    <g>
      <path d="M503.81,614.24c-.71,.55-1.61,1.2-2.69,1.86-4.5,2.78-9.71,4.2-15,4.32l-15.16,.34c-3.61,.08-6.66-2.66-6.95-6.26h0c-.31-3.74,2.45-7.03,6.19-7.37l15.08-1.37c2.14-.19,4.29-.17,6.42,.09,3.75,.47,9.17,1.66,12.33,4.71,1.07,1.03,.97,2.77-.21,3.67Z" fill="#7ccf92" stroke="#002346" stroke-miterlimit="10"></path>
      <path d="M464,614.5s-2.75,2.02-4.95-1.27c0,0-2.19-3.29-4.38,0" fill="none" stroke="#002346" stroke-linecap="round" stroke-linejoin="round"></path>
    </g>
    <g>
      <path d="M589.81,611.24c-.71,.55-1.61,1.2-2.69,1.86-4.5,2.78-9.71,4.2-15,4.32l-15.16,.34c-3.61,.08-6.66-2.66-6.95-6.26h0c-.31-3.74,2.45-7.03,6.19-7.37l15.08-1.37c2.14-.19,4.29-.17,6.42,.09,3.75,.47,9.17,1.66,12.33,4.71,1.07,1.03,.97,2.77-.21,3.67Z" fill="#7ccf92" stroke="#002346" stroke-miterlimit="10"></path>
      <path d="M550,611.5s-2.75,2.02-4.95-1.27c0,0-2.19-3.29-4.38,0" fill="none" stroke="#002346" stroke-linecap="round" stroke-linejoin="round"></path>
    </g>
    <g>
      <path d="M602.81,584.24c-.71,.55-1.61,1.2-2.69,1.86-4.5,2.78-9.71,4.2-15,4.32l-15.16,.34c-3.61,.08-6.66-2.66-6.95-6.26h0c-.31-3.74,2.45-7.03,6.19-7.37l15.08-1.37c2.14-.19,4.29-.17,6.42,.09,3.75,.47,9.17,1.66,12.33,4.71,1.07,1.03,.97,2.77-.21,3.67Z" fill="#7ccf92" stroke="#002346" stroke-miterlimit="10"></path>
      <path d="M563,584.5s-2.75,2.02-4.95-1.27c0,0-2.19-3.29-4.38,0" fill="none" stroke="#002346" stroke-linecap="round" stroke-linejoin="round"></path>
    </g>
    <g>
      <path d="M546,583.9c-.48,.37-1.09,.81-1.82,1.26-3.04,1.88-6.56,2.84-10.14,2.92l-10.25,.23c-2.44,.05-4.5-1.8-4.7-4.23h0c-.21-2.53,1.66-4.75,4.18-4.98l10.19-.93c1.45-.13,2.9-.12,4.34,.06,2.54,.32,6.2,1.12,8.34,3.18,.72,.7,.65,1.87-.14,2.48Z" fill="#7ccf92" stroke="#002346" stroke-miterlimit="10"></path>
      <path d="M519.09,584.08s-1.86,1.36-3.34-.86c0,0-1.48-2.22-2.96,0" fill="none" stroke="#002346" stroke-linecap="round" stroke-linejoin="round"></path>
    </g>
    <g>
      <path d="M722.04,572.8s8.73,2.45,17.03,.61l1.84,5.53s-9.94,3.9-14.19,10.25l-4.68-16.39Z" fill="#7ccf92" stroke="#002346" stroke-miterlimit="10"></path>
      <path d="M649.79,590.71c.79-8.35,5.51-26.74,32.13-20.99,0,0,12.9,3.69,28.58,1.84,0,0,15.67-1.84,18.44,9.22,0,0,1.84,8.3-7.37,12.9,0,0-6.78,3.16-13.05,7.27-7.78,5.09-16.54,8.55-25.78,9.59-12.05,1.36-26.43,.31-31.52-10.79-1.3-2.82-1.7-5.96-1.41-9.05Z" fill="#fbe493" stroke="#002346" stroke-miterlimit="10"></path>
    </g>
    <g>
      <path d="M692.57,528.8s-8.73,2.45-17.03,.61l-1.84,5.53s9.94,3.9,14.19,10.25l4.68-16.39Z" fill="#7ccf92" stroke="#002346" stroke-miterlimit="10"></path>
      <path d="M764.82,546.71c-.79-8.35-5.51-26.74-32.13-20.99,0,0-12.9,3.69-28.58,1.84,0,0-15.67-1.84-18.44,9.22,0,0-1.84,8.3,7.37,12.9,0,0,6.78,3.16,13.05,7.27,7.78,5.09,16.54,8.55,25.78,9.59,12.05,1.36,26.43,.31,31.52-10.79,1.3-2.82,1.7-5.96,1.41-9.05Z" fill="#fbe493" stroke="#002346" stroke-miterlimit="10"></path>
    </g>
    <g>
      <path d="M745.14,587.62s-6.26,1.76-12.21,.44l-1.32,3.96s7.13,2.79,10.17,7.34l3.36-11.75Z" fill="#7ccf92" stroke="#002346" stroke-miterlimit="10"></path>
      <path d="M796.94,600.46c-.57-5.99-3.95-19.17-23.03-15.05,0,0-9.25,2.64-20.49,1.32,0,0-11.23-1.32-13.22,6.61,0,0-1.32,5.95,5.29,9.25,0,0,4.86,2.27,9.36,5.21,5.58,3.65,11.86,6.13,18.48,6.87,8.64,.97,18.94,.23,22.6-7.73,.93-2.02,1.22-4.28,1.01-6.49Z" fill="#fbe493" stroke="#002346" stroke-miterlimit="10"></path>
    </g>
    <rect x="591" y="134.63" width="166" height="16" fill="#fff" stroke="#002346" stroke-miterlimit="10"></rect>
    <g>
      <path d="M638.74,92.16v32.62c0,.99-.43,1.95-1.2,2.58-.73,.58-1.58,1.43-2.27,2.66-.75,1.35-1.03,2.64-1.12,3.58-.06,.59-.57,1.04-1.17,1.04h-16.23c-.6,0-1.11-.45-1.17-1.04-.09-.95-.37-2.23-1.12-3.58-.68-1.23-1.54-2.08-2.27-2.66-.77-.62-1.2-1.58-1.2-2.58v-32.62c0-.79,.43-1.54,1.13-1.87,.72-.36,1.6-.94,2.34-1.88,1.23-1.58,1.39-3.35,1.33-4.52-.03-.69,.53-1.26,1.23-1.26h15.7c.69,0,1.26,.57,1.23,1.26-.06,1.17,.1,2.94,1.33,4.52,.74,.95,1.62,1.53,2.34,1.88,.71,.34,1.13,1.09,1.13,1.87Z" fill="#fbe493" stroke="#002346" stroke-miterlimit="10"></path>
      <path d="M638.74,95.34v27.74c-1.56,1.17-7.12,5.02-15.03,4.62-6.51-.33-11.02-3.35-12.72-4.62v-27.74c1.56-1.17,7.12-5.02,15.03-4.62,6.51,.33,11.02,3.35,12.72,4.62Z" fill="#fff" stroke="#002346" stroke-miterlimit="10"></path>
      <path d="M672.27,92.16v32.62c0,.99-.43,1.95-1.2,2.58-.73,.58-1.58,1.43-2.27,2.66-.75,1.35-1.03,2.64-1.12,3.58-.06,.59-.57,1.04-1.17,1.04h-16.23c-.6,0-1.11-.45-1.17-1.04-.09-.95-.37-2.23-1.12-3.58-.68-1.23-1.54-2.08-2.27-2.66-.77-.62-1.2-1.58-1.2-2.58v-32.62c0-.79,.43-1.54,1.13-1.87,.72-.36,1.6-.94,2.34-1.88,1.23-1.58,1.39-3.35,1.33-4.52-.03-.69,.53-1.26,1.23-1.26h15.7c.69,0,1.26,.57,1.23,1.26-.06,1.17,.1,2.94,1.33,4.52,.74,.95,1.62,1.53,2.34,1.88,.71,.34,1.13,1.09,1.13,1.87Z" fill="#7073c2" stroke="#002346" stroke-linecap="round" stroke-linejoin="round"></path>
      <circle cx="658.39" cy="108.63" r="10.98" fill="#fff" stroke="#002346" stroke-miterlimit="10"></circle>
      <path d="M704.63,92.16v32.62c0,.99-.43,1.95-1.2,2.58-.73,.58-1.58,1.43-2.27,2.66-.75,1.35-1.03,2.64-1.12,3.58-.06,.59-.57,1.04-1.17,1.04h-16.23c-.6,0-1.11-.45-1.17-1.04-.09-.95-.37-2.23-1.12-3.58-.68-1.23-1.54-2.08-2.27-2.66-.77-.62-1.2-1.58-1.2-2.58v-32.62c0-.79,.43-1.54,1.13-1.87,.72-.36,1.6-.94,2.34-1.88,1.23-1.58,1.39-3.35,1.33-4.52-.03-.69,.53-1.26,1.23-1.26h15.7c.69,0,1.26,.57,1.23,1.26-.06,1.17,.1,2.94,1.33,4.52,.74,.95,1.62,1.53,2.34,1.88,.71,.34,1.13,1.09,1.13,1.87Z" fill="#fbe493" stroke="#002346" stroke-miterlimit="10"></path>
      <rect x="676.89" y="94.18" width="27.74" height="28.9" fill="#fff" stroke="#002346" stroke-miterlimit="10"></rect>
      <path d="M737,92.16v32.62c0,.99-.43,1.95-1.2,2.58-.73,.58-1.58,1.43-2.27,2.66-.75,1.35-1.03,2.64-1.12,3.58-.06,.59-.57,1.04-1.17,1.04h-16.23c-.6,0-1.11-.45-1.17-1.04-.09-.95-.37-2.23-1.12-3.58-.68-1.23-1.54-2.08-2.27-2.66-.77-.62-1.2-1.58-1.2-2.58v-32.62c0-.79,.43-1.54,1.13-1.87,.72-.36,1.6-.94,2.34-1.88,1.23-1.58,1.39-3.35,1.33-4.52-.03-.69,.53-1.26,1.23-1.26h15.7c.69,0,1.26,.57,1.23,1.26-.06,1.17,.1,2.94,1.33,4.52,.74,.95,1.62,1.53,2.34,1.88,.71,.34,1.13,1.09,1.13,1.87Z" fill="#7073c2" stroke="#002346" stroke-linecap="round" stroke-linejoin="round"></path>
      <ellipse cx="723.13" cy="108.63" rx="10.4" ry="16.76" fill="#fff" stroke="#002346" stroke-miterlimit="10"></ellipse>
    </g>
    <g>
      <rect x="362" y="116.63" width="166" height="16" fill="#fff" stroke="#002346" stroke-miterlimit="10"></rect>
      <g>
        <path d="M409.74,74.16v32.62c0,.99-.43,1.95-1.2,2.58-.73,.58-1.58,1.43-2.27,2.66-.75,1.35-1.03,2.64-1.12,3.58-.06,.59-.57,1.04-1.17,1.04h-16.23c-.6,0-1.11-.45-1.17-1.04-.09-.95-.37-2.23-1.12-3.58-.68-1.23-1.54-2.08-2.27-2.66-.77-.62-1.2-1.58-1.2-2.58v-32.62c0-.79,.43-1.54,1.13-1.87,.72-.36,1.6-.94,2.34-1.88,1.23-1.58,1.39-3.35,1.33-4.52-.03-.69,.53-1.26,1.23-1.26h15.7c.69,0,1.26,.57,1.23,1.26-.06,1.17,.1,2.94,1.33,4.52,.74,.95,1.62,1.53,2.34,1.88,.71,.34,1.13,1.09,1.13,1.87Z" fill="#fbe493" stroke="#002346" stroke-miterlimit="10"></path>
        <path d="M409.74,77.34v27.74c-1.56,1.17-7.12,5.02-15.03,4.62-6.51-.33-11.02-3.35-12.72-4.62v-27.74c1.56-1.17,7.12-5.02,15.03-4.62,6.51,.33,11.02,3.35,12.72,4.62Z" fill="#fff" stroke="#002346" stroke-miterlimit="10"></path>
        <path d="M443.27,74.16v32.62c0,.99-.43,1.95-1.2,2.58-.73,.58-1.58,1.43-2.27,2.66-.75,1.35-1.03,2.64-1.12,3.58-.06,.59-.57,1.04-1.17,1.04h-16.23c-.6,0-1.11-.45-1.17-1.04-.09-.95-.37-2.23-1.12-3.58-.68-1.23-1.54-2.08-2.27-2.66-.77-.62-1.2-1.58-1.2-2.58v-32.62c0-.79,.43-1.54,1.13-1.87,.72-.36,1.6-.94,2.34-1.88,1.23-1.58,1.39-3.35,1.33-4.52-.03-.69,.53-1.26,1.23-1.26h15.7c.69,0,1.26,.57,1.23,1.26-.06,1.17,.1,2.94,1.33,4.52,.74,.95,1.62,1.53,2.34,1.88,.71,.34,1.13,1.09,1.13,1.87Z" fill="#7073c2" stroke="#002346" stroke-linecap="round" stroke-linejoin="round"></path>
        <circle cx="429.39" cy="90.63" r="10.98" fill="#fff" stroke="#002346" stroke-miterlimit="10"></circle>
        <path d="M475.63,74.16v32.62c0,.99-.43,1.95-1.2,2.58-.73,.58-1.58,1.43-2.27,2.66-.75,1.35-1.03,2.64-1.12,3.58-.06,.59-.57,1.04-1.17,1.04h-16.23c-.6,0-1.11-.45-1.17-1.04-.09-.95-.37-2.23-1.12-3.58-.68-1.23-1.54-2.08-2.27-2.66-.77-.62-1.2-1.58-1.2-2.58v-32.62c0-.79,.43-1.54,1.13-1.87,.72-.36,1.6-.94,2.34-1.88,1.23-1.58,1.39-3.35,1.33-4.52-.03-.69,.53-1.26,1.23-1.26h15.7c.69,0,1.26,.57,1.23,1.26-.06,1.17,.1,2.94,1.33,4.52,.74,.95,1.62,1.53,2.34,1.88,.71,.34,1.13,1.09,1.13,1.87Z" fill="#fbe493" stroke="#002346" stroke-miterlimit="10"></path>
        <rect x="447.89" y="76.18" width="27.74" height="28.9" fill="#fff" stroke="#002346" stroke-miterlimit="10"></rect>
        <path d="M508,74.16v32.62c0,.99-.43,1.95-1.2,2.58-.73,.58-1.58,1.43-2.27,2.66-.75,1.35-1.03,2.64-1.12,3.58-.06,.59-.57,1.04-1.17,1.04h-16.23c-.6,0-1.11-.45-1.17-1.04-.09-.95-.37-2.23-1.12-3.58-.68-1.23-1.54-2.08-2.27-2.66-.77-.62-1.2-1.58-1.2-2.58v-32.62c0-.79,.43-1.54,1.13-1.87,.72-.36,1.6-.94,2.34-1.88,1.23-1.58,1.39-3.35,1.33-4.52-.03-.69,.53-1.26,1.23-1.26h15.7c.69,0,1.26,.57,1.23,1.26-.06,1.17,.1,2.94,1.33,4.52,.74,.95,1.62,1.53,2.34,1.88,.71,.34,1.13,1.09,1.13,1.87Z" fill="#7073c2" stroke="#002346" stroke-linecap="round" stroke-linejoin="round"></path>
        <ellipse cx="494.13" cy="90.63" rx="10.4" ry="16.76" fill="#fff" stroke="#002346" stroke-miterlimit="10"></ellipse>
      </g>
    </g>
    <g>
      <rect x="370.5" y="178.13" width="20" height="49" fill="#438dca" stroke="#002346" stroke-miterlimit="10"></rect>
      <path d="M370.49,190.81c.49-.58,4.04-4.66,10.01-4.68,6-.01,9.58,4.1,10.07,4.68" fill="none" stroke="#002346" stroke-linecap="round" stroke-linejoin="round"></path>
      <path d="M390.57,213.13c-.49,.58-4.04,4.66-10.01,4.68-6,.01-9.58-4.1-10.07-4.68" fill="none" stroke="#002346" stroke-linecap="round" stroke-linejoin="round"></path>
    </g>
    <g>
      <rect x="396.5" y="178.13" width="20" height="49" fill="#fbe493" stroke="#002346" stroke-miterlimit="10"></rect>
      <path d="M396.49,190.81c.49-.58,4.04-4.66,10.01-4.68,6-.01,9.58,4.1,10.07,4.68" fill="none" stroke="#002346" stroke-linecap="round" stroke-linejoin="round"></path>
      <path d="M416.57,213.13c-.49,.58-4.04,4.66-10.01,4.68-6,.01-9.58-4.1-10.07-4.68" fill="none" stroke="#002346" stroke-linecap="round" stroke-linejoin="round"></path>
    </g>
    <g>
      <rect x="423.5" y="178.13" width="20" height="49" fill="#7ccf92" stroke="#002346" stroke-miterlimit="10"></rect>
      <path d="M423.49,190.81c.49-.58,4.04-4.66,10.01-4.68,6-.01,9.58,4.1,10.07,4.68" fill="none" stroke="#002346" stroke-linecap="round" stroke-linejoin="round"></path>
      <path d="M443.57,213.13c-.49,.58-4.04,4.66-10.01,4.68-6,.01-9.58-4.1-10.07-4.68" fill="none" stroke="#002346" stroke-linecap="round" stroke-linejoin="round"></path>
    </g>
    <g>
      <rect x="448.5" y="178.13" width="20" height="49" fill="#438dca" stroke="#002346" stroke-miterlimit="10"></rect>
      <path d="M448.49,190.81c.49-.58,4.04-4.66,10.01-4.68,6-.01,9.58,4.1,10.07,4.68" fill="none" stroke="#002346" stroke-linecap="round" stroke-linejoin="round"></path>
      <path d="M468.57,213.13c-.49,.58-4.04,4.66-10.01,4.68-6,.01-9.58-4.1-10.07-4.68" fill="none" stroke="#002346" stroke-linecap="round" stroke-linejoin="round"></path>
    </g>
    <g>
      <rect x="474.5" y="178.13" width="20" height="49" fill="#fbe493" stroke="#002346" stroke-miterlimit="10"></rect>
      <path d="M474.49,190.81c.49-.58,4.04-4.66,10.01-4.68,6-.01,9.58,4.1,10.07,4.68" fill="none" stroke="#002346" stroke-linecap="round" stroke-linejoin="round"></path>
      <path d="M494.57,213.13c-.49,.58-4.04,4.66-10.01,4.68-6,.01-9.58-4.1-10.07-4.68" fill="none" stroke="#002346" stroke-linecap="round" stroke-linejoin="round"></path>
    </g>
    <g>
      <rect x="501.5" y="178.13" width="20" height="49" fill="#7ccf92" stroke="#002346" stroke-miterlimit="10"></rect>
      <path d="M501.49,190.81c.49-.58,4.04-4.66,10.01-4.68,6-.01,9.58,4.1,10.07,4.68" fill="none" stroke="#002346" stroke-linecap="round" stroke-linejoin="round"></path>
      <path d="M521.57,213.13c-.49,.58-4.04,4.66-10.01,4.68-6,.01-9.58-4.1-10.07-4.68" fill="none" stroke="#002346" stroke-linecap="round" stroke-linejoin="round"></path>
    </g>
    <rect x="362" y="226.63" width="166" height="16" fill="#fff" stroke="#002346" stroke-miterlimit="10"></rect>
    <path d="M171,218.63s12.15-.45,23.95-19.35c11.8-18.9,11.05-20.65,11.05-20.65l19,24s.41-21.38-5-30c-5.41-8.62-16.39-9.49-16.39-9.49l-37.45,9.36-9.86,30.02,14.7,16.12Z" fill="#002346" stroke="#002346" stroke-linecap="round" stroke-linejoin="round"></path>
    <circle cx="652.5" cy="283.13" r="28" fill="#fff" stroke="#002346" stroke-miterlimit="10"></circle>
    <circle cx="678" cy="186.63" r="17.5" fill="#002346" stroke="#002346" stroke-linecap="round" stroke-linejoin="round"></circle>
    <circle cx="666" cy="195.63" r="14.5" fill="#fbe493" stroke="#002346" stroke-miterlimit="10"></circle>
    <path d="M671.84,196.62s12.79-2.08,13.05,31.75c.26,33.83,0,37.47,0,37.47h-31.39l5.96-59.98,12.39-9.24Z" fill="#002346" stroke="#002346" stroke-linecap="round" stroke-linejoin="round"></path>
    <path d="M621.6,186.71s-21.16,10.56-20.6,37.92c.38,18.51-5.07,42.19-5.07,42.19l38.07-.19-2.57-61.06-9.84-18.85Z" fill="#002346" stroke="#002346" stroke-linecap="round" stroke-linejoin="round"></path>
    <path d="M633.42,227h40.01v53.85c0,11.04-8.96,20-20,20h0c-11.04,0-20-8.96-20-20v-53.85h0Z" fill="#f0b1bf" stroke="#002346" stroke-miterlimit="10"></path>
    <rect x="606.5" y="188.54" width="56.16" height="73.86" rx="28.08" ry="28.08" fill="#f0b1bf" stroke="#002346" stroke-miterlimit="10"></rect>
    <path d="M607.5,213.13s15-12,23.72-8.97c6.05,2.1,6.38,.52,6.38,.52l3.3-8.07v9.37s6.56,2.6,8.48,4.68c1.92,2.08,4.62,7.29,4.62,7.29l3.48-4.51,2.02,18.69s-.83-8.25,5.45-8.13c6.28,.12,8.29,1.32,8.29,1.32,0,0,5.35-18.56,4.44-23.76s-5.84-4.94-5.84-4.94c0,0-5.41-21.08-30.67-17.7-35.17,4.71-33.67,34.21-33.67,34.21Z" fill="#002346" stroke="#002346" stroke-linecap="round" stroke-linejoin="round"></path>
    <circle cx="668.43" cy="230.62" r="9.07" fill="#f0b1bf" stroke="#002346" stroke-miterlimit="10"></circle>
    <path d="M607.24,219.79s3.18-6.37,11.14-3.18" fill="none" stroke="#002346" stroke-linecap="round" stroke-linejoin="round" stroke-width="2"></path>
    <path d="M627.13,215.81s6.37-1.59,11.14,4.77" fill="none" stroke="#002346" stroke-linecap="round" stroke-linejoin="round" stroke-width="2"></path>
    <path d="M620.76,223.76l-5.04,15.11c-.75,2.24,.38,4.67,2.57,5.55l4.05,1.62" fill="none" stroke="#002346" stroke-linecap="round" stroke-linejoin="round"></path>
    <circle cx="629.51" cy="232.52" r="2.39" fill="#002346" stroke="#002346" stroke-linecap="round" stroke-linejoin="round"></circle>
    <circle cx="612.01" cy="230.93" r="2.39" fill="#002346" stroke="#002346" stroke-linecap="round" stroke-linejoin="round"></circle>
    <path d="M637.47,242.06s-1.59,6.37-7.96,7.96" fill="none" stroke="#002346" stroke-linecap="round" stroke-linejoin="round"></path>
    <line x1="198.26" y1="205.87" x2="207.85" y2="202.93" fill="none" stroke="#002346" stroke-linecap="round" stroke-linejoin="round" stroke-width="2"></line>
    <line x1="215.23" y1="203.34" x2="221.57" y2="202.97" fill="none" stroke="#002346" stroke-linecap="round" stroke-linejoin="round" stroke-width="2"></line>
    <circle cx="203" cy="213.63" r="2" fill="#002346" stroke="#002346" stroke-linecap="round" stroke-linejoin="round"></circle>
    <circle cx="219" cy="211.63" r="2" fill="#002346" stroke="#002346" stroke-linecap="round" stroke-linejoin="round"></circle>
    <path d="M210.85,215s5.58,6.17,3.12,15.15" fill="none" stroke="#002346" stroke-linecap="round" stroke-linejoin="round"></path>
    <path d="M203.14,233.79l10.46,3.31c.4,.13,.52,.63,.22,.93-1.88,1.82-7.57,6.15-11.36-3.5-.17-.44,.24-.88,.68-.74Z" fill="#fff" stroke="#002346" stroke-miterlimit="10"></path>
    <circle cx="162.97" cy="225.08" r="10.53" fill="#f0b1bf" stroke="#002346" stroke-miterlimit="10"></circle>
    <ellipse cx="163.5" cy="237.63" rx="3" ry="5.5" fill="#7073c2" stroke="#002346" stroke-linecap="round" stroke-linejoin="round"></ellipse>
    <ellipse cx="667.5" cy="240.63" rx="2" ry="3.5" fill="#fbe493" stroke="#002346" stroke-miterlimit="10"></ellipse>
  </g>
  <g>
    <circle cx="189.38" cy="224.88" r="1.46" fill="#efa3b7"></circle>
    <circle cx="195.2" cy="225.21" r="1.46" fill="#efa3b7"></circle>
    <circle cx="191.95" cy="230.86" r="1.46" fill="#efa3b7"></circle>
  </g>
  <g>
    <circle cx="641.53" cy="232.88" r="1.46" fill="#efa3b7"></circle>
    <circle cx="647.34" cy="233.21" r="1.46" fill="#efa3b7"></circle>
    <circle cx="644.1" cy="238.86" r="1.46" fill="#efa3b7"></circle>
  </g>
</svg>
